<?xml version="1.0" encoding="UTF-8" standalone="no"?>
<svg
   width="64"
   version="1.1"
   height="64"
   id="svg15"
   sodipodi:docname="folder-KDE.svg"
   inkscape:version="1.4.3 (unknown)"
   xmlns:inkscape="http://www.inkscape.org/namespaces/inkscape"
   xmlns:sodipodi="http://sodipodi.sourceforge.net/DTD/sodipodi-0.dtd"
   xmlns:xlink="http://www.w3.org/1999/xlink"
   xmlns="http://www.w3.org/2000/svg"
   xmlns:svg="http://www.w3.org/2000/svg"
   xmlns:rdf="http://www.w3.org/1999/02/22-rdf-syntax-ns#"
   xmlns:cc="http://creativecommons.org/ns#"
   xmlns:dc="http://purl.org/dc/elements/1.1/">
  <sodipodi:namedview
     pagecolor="#ffffff"
     bordercolor="#666666"
     borderopacity="1"
     objecttolerance="10"
     gridtolerance="10"
     guidetolerance="10"
     inkscape:pageopacity="0"
     inkscape:pageshadow="2"
     inkscape:window-width="1920"
     inkscape:window-height="994"
     id="namedview17"
     showgrid="false"
     inkscape:zoom="9.8125"
     inkscape:cx="32"
     inkscape:cy="31.949045"
     inkscape:window-x="0"
     inkscape:window-y="0"
     inkscape:window-maximized="1"
     inkscape:current-layer="layer1"
     inkscape:document-rotation="0"
     inkscape:showpageshadow="2"
     inkscape:pagecheckerboard="0"
     inkscape:deskcolor="#d1d1d1" />
  <defs
     id="defs5455">
    <linearGradient
       inkscape:collect="always"
       id="linearGradient842">
      <stop
         style="stop-color:#008080;stop-opacity:1"
         offset="0"
         id="stop838" />
      <stop
         style="stop-color:#00e5e5;stop-opacity:1"
         offset="1"
         id="stop840" />
    </linearGradient>
    <linearGradient
       inkscape:collect="always"
       xlink:href="#linearGradient842"
       id="linearGradient838"
       x1="6"
       y1="50.000134"
       x2="94.005508"
       y2="50.000134"
       gradientUnits="userSpaceOnUse"
       gradientTransform="matrix(0.9780981,0,0,1,64.250683,974.47294)" />
    <linearGradient
       inkscape:collect="always"
       xlink:href="#linearGradient842"
       id="linearGradient890"
       x1="405.99969"
       y1="519.43079"
       x2="426.00165"
       y2="519.43079"
       gradientUnits="userSpaceOnUse"
       gradientTransform="matrix(0.95836259,0,0,0.95279969,17.106982,24.396959)" />
  </defs>
  <metadata
     id="metadata5458">
    <rdf:RDF>
      <cc:Work
         rdf:about="">
        <dc:format>image/svg+xml</dc:format>
        <dc:type
           rdf:resource="http://purl.org/dc/dcmitype/StillImage" />
      </cc:Work>
    </rdf:RDF>
  </metadata>
  <g
     inkscape:label="Capa 1"
     inkscape:groupmode="layer"
     id="layer1"
     transform="translate(-384.57143,-483.798)">
    <path
       style="color:#d3dae3;fill:url(#linearGradient890);fill-opacity:1;stroke-width:0.955577"
       d="m 417.70229,509.30602 -3.8335,0.57692 v 13.7858 l 3.8335,-1.02352 v -5.32601 l 3.83342,6.27881 3.83346,-1.42923 -4.79181,-5.71676 4.79367,-6.19135 -3.71928,-0.95466 -3.94946,6.24903 z m -7.80545,3.7386 c -0.0906,0 -0.18132,0.0349 -0.25081,0.1042 l -1.50684,1.49811 c -0.13898,0.13823 -0.1055,0.33567 0,0.50057 l 1.55927,2.43411 c -0.11556,0.23843 -0.21557,0.48393 -0.2995,0.7351 -0.004,0.0102 -0.01,0.0208 -0.0128,0.0312 l -2.82832,0.62524 c -0.19189,0.0425 -0.35561,0.15812 -0.35561,0.35365 v 0.93604 0.93602 c 0,0.19547 0.16372,0.31115 0.35561,0.35356 l 2.82832,0.62532 c 0.006,0.0184 0.0159,0.0353 0.0225,0.0536 0.0817,0.24397 0.17856,0.48263 0.29014,0.71462 l -1.55926,2.43222 c -0.10552,0.16493 -0.13902,0.36239 0,0.5006 l 1.50686,1.49803 c 0.13903,0.13822 0.36257,0.13822 0.50159,0 l 2.44461,-1.54828 c 0.24028,0.11621 0.48787,0.21691 0.7412,0.30142 0.0165,0.006 0.0319,0.0145 0.049,0.0205 l 0.62705,2.81004 c 0,0.19546 0.15905,0.35357 0.35565,0.35357 h 2.1282 c 0.19667,0 0.31301,-0.16279 0.35569,-0.35357 l 0.62703,-2.89562 c 0.28809,-0.10767 0.56775,-0.23645 0.83668,-0.38526 l 2.38657,1.69719 c 0.13901,0.13823 0.36259,0.13823 0.50163,0 l 1.5068,-1.49802 c 0.13903,-0.13821 0.10557,-0.33567 0,-0.5006 l -0.9078,-1.36964 -0.0952,0.0351 c -0.2159,0.0807 -0.45887,-0.003 -0.57839,-0.1991 l -0.95461,-1.56318 c -0.79539,1.89147 -2.67379,3.22128 -4.86482,3.22128 -2.9111,0 -5.271,-2.34624 -5.271,-5.2404 0,-2.22091 1.3923,-4.11456 3.35425,-4.87751 v -1.04402 l -0.008,0.0333 c -0.0212,0.007 -0.0407,0.0186 -0.0618,0.0263 -0.24999,0.0827 -0.49439,0.18068 -0.73184,0.29402 l -2.4409,-1.54645 c -0.0698,-0.0693 -0.16016,-0.10421 -0.2508,-0.10421 z"
       class="ColorScheme-Text"
       id="path10-7" />
    <g
       transform="matrix(0.7435117,0,0,0.74285165,332.43693,-245.2334)"
       id="g4">
      <path
         style="color:#000000;font-style:normal;font-variant:normal;font-weight:normal;font-stretch:normal;font-size:medium;line-height:normal;font-family:Sans;-inkscape-font-specification:Sans;text-indent:0;text-align:start;text-decoration:none;text-decoration-line:none;letter-spacing:normal;word-spacing:normal;text-transform:none;writing-mode:lr-tb;direction:ltr;baseline-shift:baseline;text-anchor:start;display:inline;overflow:visible;visibility:visible;opacity:1;fill:url(#linearGradient838);fill-opacity:1;fill-rule:nonzero;stroke:none;stroke-width:3.95596;marker:none;enable-background:accumulate"
         d="m 77.516136,989.47294 c -3.988712,0 -7.396866,2.85993 -7.396866,6.65625 v 56.01651 c 0,2.3649 0.836461,3.8844 2.460429,5.2631 1.623967,1.3787 3.30936,2.0641 5.459931,2.0641 h 68.3709 c 1.64145,0.029 1.59477,-2.2249 3.9e-4,-2.2488 l -68.465873,-0.04 c -2.115981,0 -3.874159,-1.4929 -3.874159,-1.4929 0,0 -1.620163,-1.2165 -1.620163,-3.5457 v -56.01651 c 0,-2.61614 1.77916,-4.29462 4.886948,-4.26047 l 24.066557,-0.0121 11.47627,10.23088 c 0.34679,0.3129 0.79077,0.759 1.25317,0.769 l 33.37023,-0.012 c 1.7015,-0.01 1.64773,-2.3444 -0.0538,-2.3717 h -32.61346 l -12.1651,-10.53119 c -0.35109,-0.30157 -0.79464,-0.46748 -1.25318,-0.46875 z m 38.818274,2.90625 c -1.55276,-0.004 -1.55586,2.67092 0.0388,2.69371 l 29.7626,-0.0408 c 3.0158,-0.004 4.32232,0.97316 5.32647,1.90993 1.00416,0.93677 2.53008,3.23017 2.53008,5.59337 v 54.9375 c 0.009,1.8591 2.19838,1.9203 2.20491,0.064 l -0.006,-55.0018 c -3.1e-4,-3.21041 -1.04994,-5.89832 -2.9343,-7.65623 -1.88434,-1.75791 -4.44981,-2.5 -7.12177,-2.5 h -29.61804 c -0.0611,-0.003 -0.12228,-0.003 -0.18339,0 z"
         id="path2-3"
         sodipodi:nodetypes="sssssccscsssccccccccsccsssccssscc" />
    </g>
  </g>
</svg>
