<?xml version="1.0" encoding="UTF-8" standalone="no"?>
<svg
   height="64"
   width="64"
   version="1.1"
   id="svg27"
   sodipodi:docname="folder-games.svg"
   inkscape:version="1.4.3 (unknown)"
   xmlns:inkscape="http://www.inkscape.org/namespaces/inkscape"
   xmlns:sodipodi="http://sodipodi.sourceforge.net/DTD/sodipodi-0.dtd"
   xmlns:xlink="http://www.w3.org/1999/xlink"
   xmlns="http://www.w3.org/2000/svg"
   xmlns:svg="http://www.w3.org/2000/svg"
   xmlns:rdf="http://www.w3.org/1999/02/22-rdf-syntax-ns#"
   xmlns:cc="http://creativecommons.org/ns#"
   xmlns:dc="http://purl.org/dc/elements/1.1/">
  <metadata
     id="metadata33">
    <rdf:RDF>
      <cc:Work
         rdf:about="">
        <dc:format>image/svg+xml</dc:format>
        <dc:type
           rdf:resource="http://purl.org/dc/dcmitype/StillImage" />
      </cc:Work>
    </rdf:RDF>
  </metadata>
  <defs
     id="defs31">
    <linearGradient
       inkscape:collect="always"
       xlink:href="#linearGradient853"
       id="linearGradient940"
       x1="19.747953"
       y1="36.067276"
       x2="44.597935"
       y2="36.067276"
       gradientUnits="userSpaceOnUse"
       gradientTransform="matrix(1.0012887,0,0,1.0003997,0,-2.1274166)" />
    <linearGradient
       inkscape:collect="always"
       xlink:href="#linearGradient853"
       id="linearGradient854"
       gradientUnits="userSpaceOnUse"
       gradientTransform="matrix(0.72722764,0,0,0.74285181,-4.3633658,-5.1425783)"
       x1="6"
       y1="50.000134"
       x2="94.005508"
       y2="50.000134" />
    <linearGradient
       inkscape:collect="always"
       id="linearGradient853">
      <stop
         style="stop-color:#008080;stop-opacity:1"
         offset="0"
         id="stop849" />
      <stop
         style="stop-color:#00e5e5;stop-opacity:1"
         offset="1"
         id="stop851" />
    </linearGradient>
  </defs>
  <sodipodi:namedview
     pagecolor="#ffffff"
     bordercolor="#666666"
     borderopacity="1"
     objecttolerance="10"
     gridtolerance="10"
     guidetolerance="10"
     inkscape:pageopacity="0"
     inkscape:pageshadow="2"
     inkscape:window-width="1920"
     inkscape:window-height="994"
     id="namedview29"
     showgrid="false"
     inkscape:zoom="2.453125"
     inkscape:cx="-89.681529"
     inkscape:cy="10.802548"
     inkscape:window-x="0"
     inkscape:window-y="0"
     inkscape:window-maximized="1"
     inkscape:current-layer="svg27"
     inkscape:document-rotation="0"
     inkscape:showpageshadow="2"
     inkscape:pagecheckerboard="0"
     inkscape:deskcolor="#d1d1d1" />
  <linearGradient
     id="a"
     gradientTransform="matrix(1 0 0 .99967 0 .176)"
     gradientUnits="userSpaceOnUse"
     x2="0"
     y1="541.798"
     y2="499.784">
    <stop
       offset="0"
       stop-color="#3daee9"
       id="stop2" />
    <stop
       offset="1"
       stop-color="#6cc1ef"
       id="stop4" />
  </linearGradient>
  <g
     id="g6"
     transform="matrix(0.27217938,0,0,0.27217938,19.028642,21.95284)" />
  <path
     class="st0"
     d="m 25.98709,26.451276 h 12.481881 c 0.953855,0 1.798698,0.408432 2.507278,1.061923 1.253637,1.143611 2.152987,3.104084 2.779806,5.146247 0.599566,2.04216 0.899349,4.166008 0.899349,5.718051 0,1.143609 -0.19077,2.04216 -0.54506,2.423364 l -0.02725,0.02723 c -0.02725,0.02723 -0.08176,0.05447 -0.109011,0.108915 v 0 c -0.381543,0.326746 -1.117375,0.517348 -1.7987,0.517348 -0.708577,0.02723 -1.417156,-0.136145 -1.798699,-0.490119 -0.02725,-0.02723 -0.08176,-0.08169 -0.109012,-0.108916 l -3.270361,-3.86649 c -0.05451,-0.05447 -0.109012,-0.108916 -0.190771,-0.136146 -0.08176,-0.02723 -0.19077,-0.05446 -0.327036,-0.05446 h -8.502938 c -0.136266,0 -0.245277,0.02723 -0.327037,0.05446 -0.05451,0.02723 -0.136264,0.08169 -0.190771,0.136146 l -3.270361,3.866488 c -0.02725,0.02723 -0.05451,0.08169 -0.109011,0.108916 -0.381543,0.353974 -1.117374,0.517348 -1.825952,0.490119 -0.681326,-0.02723 -1.417158,-0.190602 -1.798699,-0.517348 -0.02725,-0.02723 -0.08176,-0.08169 -0.109013,-0.108915 l -0.02725,-0.02723 c -0.354288,-0.40843 -0.545061,-1.279753 -0.545061,-2.423362 0,-1.552043 0.299785,-3.675891 0.89935,-5.718051 0.599567,-2.069391 1.526169,-4.029865 2.779808,-5.173476 0.735831,-0.626262 1.580674,-1.034694 2.534529,-1.034694 z m 10.982965,2.559508 c 0.490554,0 0.89935,0.381203 0.89935,0.871322 0,0.490119 -0.408796,0.871323 -0.89935,0.871323 -0.490554,0 -0.872096,-0.381204 -0.872096,-0.871323 0,-0.490119 0.381542,-0.871322 0.872096,-0.871322 z m -1.689686,1.660958 c 0.490554,0 0.872096,0.381203 0.872096,0.871322 0,0.490118 -0.381542,0.871322 -0.872096,0.871322 -0.490555,0 -0.89935,-0.381204 -0.89935,-0.871322 0.02725,-0.46289 0.436048,-0.871322 0.89935,-0.871322 z m 3.35212,0 c 0.490554,0 0.872096,0.381203 0.872096,0.871322 0,0.490118 -0.381542,0.871322 -0.872096,0.871322 -0.490554,0 -0.872096,-0.381204 -0.872096,-0.871322 0,-0.46289 0.381542,-0.871322 0.872096,-0.871322 z m -1.662434,1.688186 c 0.490554,0 0.89935,0.381203 0.89935,0.871322 0,0.490119 -0.408796,0.871322 -0.89935,0.871322 -0.490554,0 -0.872096,-0.381203 -0.872096,-0.871322 0,-0.490119 0.381542,-0.871322 0.872096,-0.871322 z m -7.658097,-1.443127 c 0.35429,0 0.626819,0.272289 0.626819,0.599034 0,0.353975 -0.272529,0.626263 -0.626819,0.626263 l -1.362651,0.02723 0.02725,1.361441 c 0,0.326746 -0.272531,0.626262 -0.599567,0.626262 -0.327036,0 -0.626818,-0.272288 -0.626818,-0.599033 l -0.02725,-1.361441 -1.362651,0.02723 c -0.354289,0 -0.626818,-0.27229 -0.626818,-0.599035 0,-0.353974 0.272529,-0.626263 0.626818,-0.626263 l 1.362651,-0.02723 -0.02725,-1.361442 c 0,-0.326746 0.272529,-0.626262 0.599565,-0.626262 0.327036,0 0.62682,0.272288 0.62682,0.599034 l 0.02725,1.36144 z"
     id="path4"
     style="fill:url(#linearGradient940);fill-opacity:1;fill-rule:evenodd;stroke-width:0.272409" />
  <path
     style="color:#000000;font-style:normal;font-variant:normal;font-weight:normal;font-stretch:normal;font-size:medium;line-height:normal;font-family:Sans;-inkscape-font-specification:Sans;text-indent:0;text-align:start;text-decoration:none;text-decoration-line:none;letter-spacing:normal;word-spacing:normal;text-transform:none;writing-mode:lr-tb;direction:ltr;baseline-shift:baseline;text-anchor:start;display:inline;overflow:visible;visibility:visible;opacity:1;fill:url(#linearGradient854);fill-opacity:1;fill-rule:nonzero;stroke:none;stroke-width:2.94001;marker:none;enable-background:accumulate"
     d="M 5.499658,6.000198 C 2.5340012,6.000198 0,8.124702 0,10.944806 v 41.611963 c 0,1.756771 0.62191039,2.885533 1.8293543,3.909704 1.2074339,1.024169 2.4605468,1.533321 4.0595246,1.533321 H 56.723458 c 1.220438,0.02154 1.185732,-1.652772 2.91e-4,-1.670526 L 5.8185584,56.299556 c -1.5732648,0 -2.8804872,-1.109004 -2.8804872,-1.109004 0,0 -1.2046103,-0.903678 -1.2046103,-2.633929 V 10.944656 c 0,-1.943404 1.3228225,-3.1902654 3.6335064,-3.1648972 l 17.8937687,-0.00899 8.532742,7.6000272 c 0.257842,0.232437 0.587947,0.563824 0.93175,0.571253 l 24.811164,-0.0089 c 1.265086,-0.0074 1.225107,-1.741542 -0.04,-1.761822 H 33.24789 L 24.202999,6.3482118 C 23.941952,6.12419 23.612168,6.0009435 23.27124,6 Z m 28.861846,2.158913 c -1.154497,-0.003 -1.156799,1.984098 0.02883,2.001027 l 22.12885,-0.03031 c 2.242283,-0.003 3.213697,0.722914 3.960294,1.418794 0.746605,0.695881 1.881145,2.399538 1.881145,4.155046 v 40.81042 c 0.0067,1.381036 1.634521,1.426498 1.639377,0.04754 L 63.9955,15.703445 c -2.3e-4,-2.384856 -0.780642,-4.381574 -2.181686,-5.68744 -1.401029,-1.305867 -3.308487,-1.85713 -5.295121,-1.85713 h -22.02137 c -0.04546,-0.0022 -0.09091,-0.0022 -0.136345,0 z"
     id="path2-3"
     sodipodi:nodetypes="sssssccscsssccccccccsccsssccssscc" />
</svg>
